<svg xmlns="http://www.w3.org/2000/svg" viewBox="0 0 64 64" width="64" height="64" role="img" aria-label="Hand-drawn sun icon">
  <title>Hand-drawn sun icon</title>
  <desc>Excalidraw-style sun icon with thin layered rough strokes.</desc>
  <style>
    .stroke {
      fill: none;
      stroke: #f8fafc;
      stroke-linecap: round;
      stroke-linejoin: round;
      vector-effect: non-scaling-stroke;
    }
    .main { stroke-width: 1.45; opacity: 0.82; }
    .soft { stroke-width: 1.15; opacity: 0.48; }
    .tiny { stroke-width: 1.05; opacity: 0.64; }
  </style>

  <!-- layered imperfect solar disk -->
  <path class="stroke main" d="M31.6 20.2 C35.1 19.9 38.5 20.9 41.1 23.4 C43.6 25.7 44.7 29 44.5 32.3 C44.3 36.2 42.6 39.4 39.6 41.5 C36.7 43.6 32.8 44.4 29.2 43.5 C25.9 42.7 23.4 40.6 21.7 37.8 C20.1 35.1 19.5 31.5 20.4 28.4 C21.4 24.6 24.1 21.8 27.4 20.8 C28.7 20.4 30.1 20.3 31.6 20.2 Z"/>
  <path class="stroke main" d="M32.3 21.4 C35.5 21.1 38.4 22.2 40.5 24.5 C42.7 26.8 43.8 29.8 43.3 33.1 C42.9 36.2 41.2 39.1 38.6 40.9 C36.1 42.6 32.7 43.3 29.5 42.6 C26.3 41.8 24.1 39.9 22.8 37.2 C21.4 34.6 21.2 31.3 22.1 28.5 C23 25.8 25 23.6 27.6 22.4 C29 21.8 30.5 21.6 32.3 21.4 Z"/>
  <path class="stroke soft" d="M31.1 22.8 C33.9 22.6 36.7 23.4 38.7 25.5 C40.5 27.4 41.4 30 41.3 32.7 C41.2 35.5 39.8 38 37.7 39.6 C35.5 41.2 32.6 41.8 29.8 41.1 C27.2 40.5 25.4 38.8 24.2 36.6 C23 34.4 22.8 31.7 23.6 29.2 C24.5 26.6 26.2 24.6 28.6 23.5 C29.3 23.1 30.1 22.9 31.1 22.8 Z"/>

  <!-- uneven rays, each double-stroked for rough handmade look -->
  <path class="stroke main" d="M32.1 8.2 C32.2 10.8 32.1 13.2 32.3 15.5"/>
  <path class="stroke soft" d="M30.9 8.7 C31.3 11 31.1 13.4 31.5 15.2"/>

  <path class="stroke main" d="M44.9 11.7 C43.6 14 42.3 16 41.2 18.1"/>
  <path class="stroke soft" d="M46 12.5 C44.4 14.6 43.2 16.5 42.2 18.6"/>

  <path class="stroke main" d="M53.9 22.2 C51.6 23.5 49.5 24.8 47.4 26"/>
  <path class="stroke soft" d="M54.5 23.7 C52.1 24.4 50.1 25.6 47.9 26.8"/>

  <path class="stroke main" d="M56 34.6 C53.5 34.3 51.2 34.2 48.7 34.1"/>
  <path class="stroke soft" d="M55.6 36 C53.2 35.6 51 35.2 48.5 35"/>

  <path class="stroke main" d="M50.4 48.1 C48.6 46.3 46.9 44.8 45.1 43.2"/>
  <path class="stroke soft" d="M49.5 49.2 C48.1 47.2 46.4 45.9 44.5 44.1"/>

  <path class="stroke main" d="M35.4 55.8 C35.1 53.4 34.8 51 34.5 48.5"/>
  <path class="stroke soft" d="M33.7 55.6 C33.8 53.2 33.5 51 33.2 48.8"/>

  <path class="stroke main" d="M18.8 52 C20.2 49.9 21.6 47.9 22.9 45.8"/>
  <path class="stroke soft" d="M17.6 51.1 C19.2 49.5 20.4 47.6 21.9 45.4"/>

  <path class="stroke main" d="M8.7 40.1 C11.3 39.2 13.6 38.6 16.1 37.8"/>
  <path class="stroke soft" d="M9.5 41.7 C11.8 40.5 13.9 40 16.3 39.1"/>

  <path class="stroke main" d="M8.8 25.6 C11.2 26.3 13.4 27.1 15.9 27.8"/>
  <path class="stroke soft" d="M9.4 24.1 C11.7 25.2 13.6 25.7 16.2 26.5"/>

  <path class="stroke main" d="M19.2 12.4 C20.5 14.6 21.8 16.7 23.1 18.6"/>
  <path class="stroke soft" d="M17.9 13.1 C19.5 15.1 20.9 17.1 22.1 19"/>
</svg>
